<svg width="21" height="21" viewBox="0 0 21 21" fill="none" xmlns="http://www.w3.org/2000/svg">
<path d="M19.7712 20.4919C19.588 20.4919 19.4047 20.422 19.2648 20.2821L10.8272 11.8428C10.5474 11.5629 10.5474 11.1096 10.8272 10.8298C11.107 10.5499 11.5603 10.5499 11.84 10.8298L20.2777 19.269C20.5574 19.5489 20.5574 20.0022 20.2777 20.2821C20.1378 20.422 19.9545 20.4919 19.7712 20.4919Z" fill="#A8D1E7"/>
<path d="M7.11447 13.7973C5.40358 13.7973 3.69199 13.1457 2.3896 11.8427C-0.215904 9.23664 -0.215904 4.99671 2.3896 2.39069C3.65143 1.12826 5.32944 0.432861 7.11447 0.432861C8.9002 0.432861 10.5782 1.12826 11.84 2.39069C14.4455 4.99671 14.4455 9.23664 11.84 11.8427C10.5376 13.1457 8.82605 13.7973 7.11447 13.7973ZM7.11447 1.86564C5.71274 1.86564 4.39426 2.41168 3.40242 3.40372C1.35579 5.4511 1.35579 8.78225 3.40242 10.8296C5.44975 12.8774 8.78129 12.876 10.8272 10.8296C12.8738 8.78225 12.8738 5.4511 10.8272 3.40372C9.83538 2.41168 8.51689 1.86564 7.11447 1.86564Z" fill="#A8D1E7"/>
</svg>
